<svg viewBox="0 0 330 200" xmlns="http://www.w3.org/2000/svg"><g><g><g><g><g><line x1="51.5625" y1="158.45406708717346" x2="46.5625" y2="158.45406708717346" style="visibility: inherit;" fill="rgb(0, 0, 0)" stroke="rgb(204, 204, 204)" stroke-width="1px"></line><line x1="51.5625" y1="137.6093302450682" x2="46.5625" y2="137.6093302450682" style="visibility: inherit;" fill="rgb(0, 0, 0)" stroke="rgb(204, 204, 204)" stroke-width="1px"></line><line x1="51.5625" y1="116.76459340296293" x2="46.5625" y2="116.76459340296293" style="visibility: inherit;" fill="rgb(0, 0, 0)" stroke="rgb(204, 204, 204)" stroke-width="1px"></line><line x1="51.5625" y1="95.91985656085768" x2="46.5625" y2="95.91985656085768" style="visibility: inherit;" fill="rgb(0, 0, 0)" stroke="rgb(204, 204, 204)" stroke-width="1px"></line><line x1="51.5625" y1="75.07511971875242" x2="46.5625" y2="75.07511971875242" style="visibility: inherit;" fill="rgb(0, 0, 0)" stroke="rgb(204, 204, 204)" stroke-width="1px"></line><line x1="51.5625" y1="54.23038287664714" x2="46.5625" y2="54.23038287664714" style="visibility: inherit;" fill="rgb(0, 0, 0)" stroke="rgb(204, 204, 204)" stroke-width="1px"></line><line x1="51.5625" y1="33.38564603454188" x2="46.5625" y2="33.38564603454188" style="visibility: inherit;" fill="rgb(0, 0, 0)" stroke="rgb(204, 204, 204)" stroke-width="1px"></line><line x1="51.5625" y1="12.540909192436622" x2="46.5625" y2="12.540909192436622" style="visibility: inherit;" fill="rgb(0, 0, 0)" stroke="rgb(204, 204, 204)" stroke-width="1px"></line></g><g transform="translate(41.5625, 0)"><text x="0" y="158.45406708717346" dx="0em" dy="0.3em" style="text-anchor: end; visibility: inherit; font-family: Roboto, sans-serif; font-size: 12px; font-weight: 200;" fill="rgb(50, 49, 63)" stroke="none" stroke-width="1px">-400</text><text x="0" y="137.6093302450682" dx="0em" dy="0.3em" style="text-anchor: end; visibility: hidden; font-family: Roboto, sans-serif; font-size: 12px; font-weight: 200;" fill="rgb(50, 49, 63)" stroke="none" stroke-width="1px">-300</text><text x="0" y="116.76459340296293" dx="0em" dy="0.3em" style="text-anchor: end; visibility: inherit; font-family: Roboto, sans-serif; font-size: 12px; font-weight: 200;" fill="rgb(50, 49, 63)" stroke="none" stroke-width="1px">-200</text><text x="0" y="95.91985656085768" dx="0em" dy="0.3em" style="text-anchor: end; visibility: hidden; font-family: Roboto, sans-serif; font-size: 12px; font-weight: 200;" fill="rgb(50, 49, 63)" stroke="none" stroke-width="1px">-100</text><text x="0" y="75.07511971875242" dx="0em" dy="0.3em" style="text-anchor: end; visibility: inherit; font-family: Roboto, sans-serif; font-size: 12px; font-weight: 200;" fill="rgb(50, 49, 63)" stroke="none" stroke-width="1px">0</text><text x="0" y="54.23038287664714" dx="0em" dy="0.3em" style="text-anchor: end; visibility: hidden; font-family: Roboto, sans-serif; font-size: 12px; font-weight: 200;" fill="rgb(50, 49, 63)" stroke="none" stroke-width="1px">100</text><text x="0" y="33.38564603454188" dx="0em" dy="0.3em" style="text-anchor: end; visibility: inherit; font-family: Roboto, sans-serif; font-size: 12px; font-weight: 200;" fill="rgb(50, 49, 63)" stroke="none" stroke-width="1px">200</text><text x="0" y="12.540909192436622" dx="0em" dy="0.3em" style="text-anchor: end; visibility: hidden; font-family: Roboto, sans-serif; font-size: 12px; font-weight: 200;" fill="rgb(50, 49, 63)" stroke="none" stroke-width="1px">300</text></g><line x1="51.5625" y1="0" x2="51.5625" y2="178" fill="rgb(0, 0, 0)" stroke="rgb(204, 204, 204)" stroke-width="1px"></line></g></g><g transform="translate(51, 0)" clip-path="url(#clip_0)"><clipPath id="clip_0"><rect width="278" height="177"></rect></clipPath><g><g><g><line x1="0.6140779194078958" y1="0" x2="0.6140779194078958" y2="178" fill="rgb(0, 0, 0)" stroke="rgb(60, 60, 60)" stroke-width="1px" opacity="0.25"></line><line x1="33.555715460526315" y1="0" x2="33.555715460526315" y2="178" fill="rgb(0, 0, 0)" stroke="rgb(60, 60, 60)" stroke-width="1px" opacity="0.25"></line><line x1="66.49735300164474" y1="0" x2="66.49735300164474" y2="178" fill="rgb(0, 0, 0)" stroke="rgb(60, 60, 60)" stroke-width="1px" opacity="0.25"></line><line x1="99.43899054276315" y1="0" x2="99.43899054276315" y2="178" fill="rgb(0, 0, 0)" stroke="rgb(60, 60, 60)" stroke-width="1px" opacity="0.25"></line><line x1="132.3806280838816" y1="0" x2="132.3806280838816" y2="178" fill="rgb(0, 0, 0)" stroke="rgb(60, 60, 60)" stroke-width="1px" opacity="0.25"></line><line x1="165.322265625" y1="0" x2="165.322265625" y2="178" fill="rgb(0, 0, 0)" stroke="rgb(60, 60, 60)" stroke-width="1px" opacity="0.25"></line><line x1="198.26390316611844" y1="0" x2="198.26390316611844" y2="178" fill="rgb(0, 0, 0)" stroke="rgb(60, 60, 60)" stroke-width="1px" opacity="0.25"></line><line x1="231.20554070723682" y1="0" x2="231.20554070723682" y2="178" fill="rgb(0, 0, 0)" stroke="rgb(60, 60, 60)" stroke-width="1px" opacity="0.25"></line><line x1="264.14717824835526" y1="0" x2="264.14717824835526" y2="178" fill="rgb(0, 0, 0)" stroke="rgb(60, 60, 60)" stroke-width="1px" opacity="0.25"></line></g><g><line x1="0" y1="158.45406708717346" x2="278.4375" y2="158.45406708717346" fill="rgb(0, 0, 0)" stroke="rgb(60, 60, 60)" stroke-width="1px" opacity="0.25"></line><line x1="0" y1="137.6093302450682" x2="278.4375" y2="137.6093302450682" fill="rgb(0, 0, 0)" stroke="rgb(60, 60, 60)" stroke-width="1px" opacity="0.25"></line><line x1="0" y1="116.76459340296293" x2="278.4375" y2="116.76459340296293" fill="rgb(0, 0, 0)" stroke="rgb(60, 60, 60)" stroke-width="1px" opacity="0.25"></line><line x1="0" y1="95.91985656085768" x2="278.4375" y2="95.91985656085768" fill="rgb(0, 0, 0)" stroke="rgb(60, 60, 60)" stroke-width="1px" opacity="0.25"></line><line x1="0" y1="75.07511971875242" x2="278.4375" y2="75.07511971875242" fill="rgb(0, 0, 0)" stroke="rgb(60, 60, 60)" stroke-width="1px" opacity="0.25"></line><line x1="0" y1="54.23038287664714" x2="278.4375" y2="54.23038287664714" fill="rgb(0, 0, 0)" stroke="rgb(60, 60, 60)" stroke-width="1px" opacity="0.25"></line><line x1="0" y1="33.38564603454188" x2="278.4375" y2="33.38564603454188" fill="rgb(0, 0, 0)" stroke="rgb(60, 60, 60)" stroke-width="1px" opacity="0.25"></line><line x1="0" y1="12.540909192436622" x2="278.4375" y2="12.540909192436622" fill="rgb(0, 0, 0)" stroke="rgb(60, 60, 60)" stroke-width="1px" opacity="0.25"></line></g></g></g><g><g><line x1="0" y1="75.07511971875242" x2="278.4375" y2="75.07511971875242" fill="rgb(0, 0, 0)" stroke="rgb(153, 153, 153)" stroke-width="1.5px"></line></g></g><g><g><line x1="0.6140779194078958" y1="0" x2="0.6140779194078958" y2="178" fill="rgb(0, 0, 0)" stroke="rgb(153, 153, 153)" stroke-width="1.5px"></line></g></g><g><g><g><g><g><path stroke="rgb(255, 112, 67)" stroke-width="2px" d="M11.15540193256579,179.0450202792041L12.473067434210526,163.06600985961393L13.790732935855264,147.29490218659703L15.1083984375,134.38246467349475L16.426063939144736,123.30960672290999L17.743729440789473,116.07817645796173L19.061394942434212,109.94703275531577L20.37906044407895,109.78850339538786L21.696725945723685,106.4616839916251L23.01439144736842,102.78974826867922L24.33205694901316,99.19159134340902L25.649722450657894,96.77492981070004L26.967387952302634,95.17358011564625L28.285053453947366,97.35870615567445L29.602718955592106,91.17281412703746L30.920384457236842,88.4393246332046L32.23804995888158,85.883698672371L33.555715460526315,84.01813886105514L34.87338096217105,81.69040366097123L36.19104646381579,77.44143944875353L37.50871196546053,78.19316208254179L38.82637746710526,75.1865295182698L40.14404296875,74.90002689353747L41.46170847039473,74.85680434385056L42.77937397203947,74.59657111027354L44.09703947368421,74.08573567892115L45.41470497532895,69.679084968965L46.73237047697369,69.7902728468622L48.050035978618425,70.6886834963723L49.36770148026316,70.53744705013041L50.6853669819079,71.31086151442628L52.00303248355264,73.20975775320035L53.32069798519737,65.95606322689508L54.63836348684211,60.84198814678344L55.95602898848685,63.484337350887444L57.27369449013158,64.66716756769287L58.591359991776315,60.708551447967196L59.909025493421055,59.09285197627166L61.226690995065795,57.410422904263505L62.544356496710535,60.31399041741743L63.86202199835526,59.599200320896664L65.1796875,56.6473454897628L66.49735300164474,52.280948102716295L67.81501850328948,49.032153258538486L69.1326840049342,46.63757630183396L70.45034950657895,44.36020726652308L71.76801500822368,40.75029340560867L73.08568050986842,38.46964156588959L74.40334601151316,37.323586139283464L75.72101151315789,35.61444775195808L77.03867701480263,36.1367549344458L78.35634251644737,34.04440428081665L79.67400801809211,32.945935265282436L80.99167351973685,31.387293715178348L82.30933902138158,31.54177337578782L83.62700452302632,31.753188979336496L84.94467002467105,33.252045555142466L86.26233552631578,33.567239047540696L87.58000102796053,33.56052406578152L88.89766652960526,32.639943344045975L90.21533203125001,31.36494814545795L91.53299753289474,29.5352940992095L92.85066303453947,28.256832028774916L94.16832853618422,27.097243387843807L95.48599403782895,26.077888875264343L96.80365953947368,26.113732319551897L98.12132504111842,25.579012636321156L99.43899054276315,25.252227771525032L100.7566560444079,23.770193172622932L102.07432154605263,23.057507209571668L103.39198704769737,23.41461528745176L104.70965254934211,23.594594603614343L106.02731805098684,23.750707799287646L107.34498355263158,23.926110964663277L108.66264905427632,23.237867285767464L109.98031455592105,22.31778844024068L111.2979800575658,22.370126905815084L112.61564555921053,21.546477991924956L113.93331106085526,22.441907790032708L115.2509765625,22.22282879162086L116.56864206414474,22.258764228125017L117.88630756578947,21.40366914324462L119.20397306743422,24.271512575140903L120.52163856907895,24.296193183259465L121.83930407072368,23.75114250157306L123.15696957236842,24.20187858899098L124.47463507401315,24.329956531113027L125.7923005756579,23.732943358086256L127.10996607730263,24.26809517385087L128.42763157894737,27.195348412042073L129.7452970805921,29.150725026321503L131.06296258223685,26.77771137913206L132.3806280838816,25.958976150945897L133.69829358552633,25.578141296021073L135.01595908717104,25.046127867320546L136.33362458881578,27.222034175410545L137.65129009046052,28.000593446413728L138.96895559210526,26.764133975361215L140.28662109375,26.16297824869577L141.60428659539474,25.430374207862435L142.92195209703948,24.410449711572475L144.23961759868422,23.519827076379478L145.55728310032893,23.55938898194602L146.87494860197367,22.499137017688046L148.1926141036184,26.27562352022992L149.51027960526318,25.428951826875963L150.8279451069079,23.88318703568196L152.14561060855263,22.773239040043855L153.46327611019737,22.82366593800245L154.78094161184208,22.092387690211382L156.09860711348685,22.37693565568992L157.4162726151316,21.33638095106233L158.7339381167763,21.628765446801243L160.05160361842104,20.647731755034574L161.36926912006578,21.295278807152016L162.68693462171055,20.43326166408961L164.00460012335526,24.27194819956641L165.322265625,23.26107836232825L166.63993112664474,28.627736608759978L167.95759662828945,29.154287006923454L169.2752621299342,29.443065791255204L170.59292763157896,27.485217786567315L171.9105931332237,27.384093848984726L173.2282586348684,24.990516693258094L174.54592413651315,30.798525325147317L175.8635896381579,29.43883155063784L177.18125513980263,32.82078022060583L178.49892064144737,31.655422924601353L179.8165861430921,31.436857493055186L181.13425164473682,31.793425072423805L182.45191714638156,29.42466792833803L183.76958264802633,31.471949785829892L185.08724814967107,32.1111782806959L186.40491365131578,29.706721577366057L187.72257915296052,27.351616472623924L189.04024465460526,26.777684022885918L190.35791015624997,29.597307407786786L191.67557565789474,27.66720764014079L192.99324115953948,25.698579162372663L194.31090666118422,24.55796420765995L195.62857216282893,23.74809160600817L196.94623766447367,22.423496573071567L198.26390316611844,21.37444647702656L199.58156866776315,21.66240424717541L200.8992341694079,22.12926802309288L202.21689967105263,22.118452019965314L203.53456517269734,22.15984363419207L204.8522306743421,22.43083043647625L206.16989617598685,22.008842688747688L207.4875616776316,24.337360999186867L208.8052271792763,23.077300990459378L210.12289268092104,23.842772532315188L211.44055818256578,22.775112195047225L212.75822368421052,22.399417963897015L214.07588918585526,20.942249403735286L215.3935546875,21.488039969038784L216.71122018914474,22.44526539822312L218.02888569078945,22.540894576762813L219.34655119243422,23.768096349866752L220.66421669407896,23.06742262029146L221.98188219572367,22.832847280237274L223.2995476973684,22.708679231833212L224.61721319901315,22.311821289113738L225.93487870065786,22.086626076006475L227.25254420230263,22.15256349972039L228.57020970394737,21.368661376024455L229.8878752055921,22.21474692410915L231.20554070723682,22.923393917071657L232.52320620888156,22.608380288505927L233.84087171052633,22.13115869614882L235.15853721217104,22.326398572579876L236.47620271381578,21.51376249962611L237.79386821546052,20.419786954893855L239.11153371710523,19.52373760929234L240.42919921875,19.432774588017725L241.74686472039474,20.034961940773396L243.06453022203948,20.14708542768217L244.3821957236842,19.766445580188485L245.69986122532893,19.402410935277143L247.01752672697367,19.76870845834888L248.33519222861844,21.59917558961209L249.65285773026315,21.74822146355514L250.9705232319079,23.184562071208237L252.28818873355263,22.21335179333759L253.60585423519734,21.910128052820482L254.9235197368421,21.673276782896025L256.2411852384868,21.39147154708209L257.55885074013156,22.167922052066597L258.8765162417763,21.754860863100873L260.19418174342104,23.323352934459916L261.5118472450658,23.734656121865537L262.8295127467105,23.40293934336951L264.14717824835526,22.90120131212927" style="fill: none;" fill="none"></path></g><g><path stroke="rgb(238, 51, 119)" stroke-width="2px" d="M1.9317434210526325,180.29781355730694L3.2494089226973695,176.44233462984383L4.567074424342106,181.1053593047932L9.837736430921053,178.79299826316108L11.15540193256579,160.12290420562044L12.473067434210526,144.83704878002723L13.790732935855264,136.58463552304084L15.1083984375,124.4781544871605L16.426063939144736,117.52161929763797L17.743729440789473,111.98865661965664L19.061394942434212,106.89745018691269L20.37906044407895,102.01873522891303L21.696725945723685,97.61131201345862L23.01439144736842,94.70915191354068L24.33205694901316,95.3530253531647L25.649722450657894,94.8476220492765L26.967387952302634,95.83973855740687L28.285053453947366,98.19432089318275L29.602718955592106,97.73012365526745L30.920384457236842,99.95708478157309L32.23804995888158,99.03089320633619L33.555715460526315,99.66227960608191L34.87338096217105,96.67018278709037L36.19104646381579,93.45479243538954L37.50871196546053,90.89908372306303L38.82637746710526,90.37702753973429L40.14404296875,88.28511643492686L41.46170847039473,93.02987748847143L42.77937397203947,93.98777921069859L44.09703947368421,89.67382828471439L45.41470497532895,89.30128595634936L46.73237047697369,87.4223429773907L48.050035978618425,84.93509221365885L49.36770148026316,84.06260757712415L50.6853669819079,82.84624048452545L52.00303248355264,81.64338427984119L53.32069798519737,78.32436369442831L54.63836348684211,78.2109438900684L55.95602898848685,78.84259394276299L57.27369449013158,78.16214304789321L58.591359991776315,77.43638157296517L59.909025493421055,77.45144375520105L61.226690995065795,68.46212753251089L62.544356496710535,67.20858612319547L63.86202199835526,61.92432034937502L65.1796875,54.86424984895733L66.49735300164474,53.41805323954646L67.81501850328948,49.32190481330268L69.1326840049342,46.373392424759594L70.45034950657895,46.024501445007004L71.76801500822368,48.7813121615401L73.08568050986842,48.977120459705695L74.40334601151316,46.29614290256865L75.72101151315789,44.12802977284638L77.03867701480263,42.1491697181624L78.35634251644737,38.08678456023027L79.67400801809211,34.75112430987085L80.99167351973685,39.22904399178498L82.30933902138158,34.4991880354329L83.62700452302632,33.97263329586797L84.94467002467105,34.672930285299664L86.26233552631578,34.557693170829374L87.58000102796053,33.56615535644173L88.89766652960526,33.82142758442502L90.21533203125001,34.94463901277168L91.53299753289474,32.76880290209241L92.85066303453947,30.17402589972206L94.16832853618422,30.059107342562218L95.48599403782895,30.18138068895445L96.80365953947368,30.89385387405036L98.12132504111842,33.18217914240629L99.43899054276315,34.554617040853415L100.7566560444079,38.744817170952345L102.07432154605263,37.70795929949978L103.39198704769737,34.78448085575158L104.70965254934211,33.99606616639791L106.02731805098684,34.16993631158705L107.34498355263158,34.09976317496266L108.66264905427632,35.04360334240468L109.98031455592105,34.08684852142362L111.2979800575658,32.383304277628234L112.61564555921053,32.09548046868769L113.93331106085526,32.862840047537894L115.2509765625,36.15212214674192L116.56864206414474,35.2261699992738L117.88630756578947,34.743318644099986L119.20397306743422,35.28449158303169L120.52163856907895,36.752197964521315L121.83930407072368,34.44723920969977L123.15696957236842,38.00534053412222L124.47463507401315,36.000930780138354L125.7923005756579,33.241426568599344L127.10996607730263,31.170007372054755L128.42763157894737,31.665947963050662L129.7452970805921,31.26265834148667L131.06296258223685,32.364725730962746L132.3806280838816,32.8002044370389L133.69829358552633,33.23448542755883L135.01595908717104,32.67072969882787L136.33362458881578,34.35758035960508L137.65129009046052,33.09697006511955L138.96895559210526,33.08566152113013L140.28662109375,34.64036562257403L141.60428659539474,35.904099596711944L142.92195209703948,34.78799677535429L144.23961759868422,33.86770618296422L145.55728310032893,33.47365296506292L146.87494860197367,33.21015391306791L148.1926141036184,31.778249910958277L149.51027960526318,30.18667618557465L150.8279451069079,29.874804356415662L152.14561060855263,31.754668517086373L153.46327611019737,31.269006431415736L154.78094161184208,30.207141126859106L156.09860711348685,36.03217935788754L157.4162726151316,36.18332726997207L158.7339381167763,35.627847629539126L160.05160361842104,39.934383895532775L161.36926912006578,38.79720082078903L162.68693462171055,35.62799951809364L164.00460012335526,33.03569649202272L165.322265625,33.04776095826263L166.63993112664474,32.961426742005656L167.95759662828945,32.08102976847488L169.2752621299342,31.035196418165896L170.59292763157896,31.850132894239923L171.9105931332237,32.226467554915644L173.2282586348684,31.398787821635135L174.54592413651315,30.774641405038015L175.8635896381579,30.507530492608005L177.18125513980263,28.335150874489937L178.49892064144737,26.596254815814827L179.8165861430921,28.21847088754396L181.13425164473682,26.895299256883618L182.45191714638156,27.51156034913853L183.76958264802633,27.7939106635649L185.08724814967107,27.76890789147251L186.40491365131578,27.28624322816806L187.72257915296052,25.983920809642235L189.04024465460526,26.77803202877796L190.35791015624997,28.909046012197802L191.67557565789474,28.80602220563146L192.99324115953948,28.538508792879295L194.31090666118422,26.101217438689424L195.62857216282893,26.355340595298888L196.94623766447367,28.175309785484167L198.26390316611844,26.297705483621407L199.58156866776315,25.3075076595179L200.8992341694079,25.05150468314908L202.21689967105263,26.902511292452218L203.53456517269734,26.92885929069092L204.8522306743421,27.998441692866873L206.16989617598685,27.443348700423076L207.4875616776316,26.665442996075353L208.8052271792763,27.273496709141032L210.12289268092104,29.27729949910618L211.44055818256578,28.91961840472657L212.75822368421052,29.425682307604202L214.07588918585526,28.70520644385445L215.3935546875,27.248779385731414L216.71122018914474,25.695815456100522L218.02888569078945,25.269918303388298L219.34655119243422,26.22068622671348L220.66421669407896,26.85173151830909L221.98188219572367,25.794781823321163L223.2995476973684,24.430238501528518L224.61721319901315,23.922201768417217L225.93487870065786,23.22876284920049L227.25254420230263,23.6980832023782L228.57020970394737,23.66673314778464L229.8878752055921,25.685523190056937L231.20554070723682,25.148359681770145L232.52320620888156,24.55524819927274L233.84087171052633,26.672029903922294L235.15853721217104,25.61276998169224L236.47620271381578,25.18303031590653L237.79386821546052,25.050122969119755L239.11153371710523,24.458203399914655L240.42919921875,24.068017429898273L241.74686472039474,23.007676952096528L243.06453022203948,23.433460229099083L244.3821957236842,23.892510884659153" style="fill: none;" fill="none"></path></g><g><path stroke="rgb(51, 187, 238)" stroke-width="2px" d="M9.837736430921053,199.85279269247297L11.15540193256579,175.09933424199L12.473067434210526,159.02915754321097L13.790732935855264,138.79254088847307L15.1083984375,124.25609970251709L16.426063939144736,111.67770563508368L17.743729440789473,103.5124431592097L19.061394942434212,100.06255969455847L20.37906044407895,97.75796341925628L21.696725945723685,96.1817103548309L23.01439144736842,98.4793885450683L24.33205694901316,98.12256395840066L25.649722450657894,108.58785198379273L26.967387952302634,108.38723507077474L28.285053453947366,109.58113495060884L29.602718955592106,107.8720273444079L30.920384457236842,101.57218224492071L32.23804995888158,100.14068632451259L33.555715460526315,93.82053229407153L34.87338096217105,88.06970067277376L36.19104646381579,78.70985920003864L37.50871196546053,72.04075929040407L38.82637746710526,67.43370669026785L40.14404296875,60.58426865768954L41.46170847039473,56.001666575144526L42.77937397203947,53.080783102448095L44.09703947368421,48.85872935258168L45.41470497532895,45.811793261526574L46.73237047697369,43.72313256917748L48.050035978618425,42.50621945577452L49.36770148026316,40.20448402681503L50.6853669819079,38.899267877816385L52.00303248355264,36.181535764179024L53.32069798519737,36.394017991057375L54.63836348684211,37.66359943183054L55.95602898848685,35.065601126645774L57.27369449013158,32.82442112382437L58.591359991776315,30.425909520864177L59.909025493421055,29.61934840320577L61.226690995065795,28.7117784766735L62.544356496710535,27.042752174879233L63.86202199835526,27.44399718030616L65.1796875,28.009153212552306L66.49735300164474,27.113893823154168L67.81501850328948,26.390910046705418L69.1326840049342,26.220842354121018L70.45034950657895,25.690561402307925L71.76801500822368,26.463647916025543L73.08568050986842,25.877208174303686L74.40334601151316,25.88286859301217L75.72101151315789,26.12310433539501L77.03867701480263,25.175903788701437L78.35634251644737,25.774127130136907L79.67400801809211,24.7235639072815L80.99167351973685,24.55254233323789L82.30933902138158,24.522982610948272L83.62700452302632,24.454688603403373L84.94467002467105,23.53316815836702L86.26233552631578,23.9218939097475L87.58000102796053,24.011799180961166L88.89766652960526,24.471790680829287L90.21533203125001,25.20033526439761L91.53299753289474,26.947494786594774L92.85066303453947,26.78932673976668L94.16832853618422,25.925650759985754L95.48599403782895,25.891513294686934L96.80365953947368,26.19459127966312L98.12132504111842,27.522340718561427L99.43899054276315,26.533548584229955L100.7566560444079,26.149282439308426L102.07432154605263,25.58715253663524L103.39198704769737,27.37624388967272L104.70965254934211,27.69510086461485L106.02731805098684,29.97659412820422L107.34498355263158,30.13731789678082L108.66264905427632,30.60359971700199L109.98031455592105,31.927294160393714L111.2979800575658,29.857640316537278L112.61564555921053,28.17355471399256L113.93331106085526,27.322279396087495L115.2509765625,26.808333195180996L116.56864206414474,27.004555913905918L117.88630756578947,26.40090602668347L119.20397306743422,25.773660105762236L120.52163856907895,24.65200852836687L121.83930407072368,25.768968362856207L123.15696957236842,26.346353098563345L124.47463507401315,26.19046647427169L125.7923005756579,28.611371680903183L127.10996607730263,28.44156941133349L128.42763157894737,27.896764138604887L129.7452970805921,28.57545303796215L131.06296258223685,27.39141821857023L132.3806280838816,28.89936486811487L133.69829358552633,29.24109436081853L135.01595908717104,28.347353988988026L136.33362458881578,31.624214038692045L137.65129009046052,32.849744021382065L138.96895559210526,31.008172444690146L140.28662109375,29.05297924416491L141.60428659539474,26.835983912589352L142.92195209703948,26.93535544590143L144.23961759868422,27.47300176956105L145.55728310032893,26.398818776016114L146.87494860197367,24.987168915747617L148.1926141036184,25.03834955366013L149.51027960526318,25.47954380009678L150.8279451069079,25.633108424233004L152.14561060855263,25.022075641484907L153.46327611019737,23.952619041541087L154.78094161184208,24.054723999965717L156.09860711348685,23.190190628782958L157.4162726151316,22.516547351958774L158.7339381167763,23.442694321560744L160.05160361842104,22.320187334282767L161.36926912006578,21.913625931987248L162.68693462171055,22.293071154280785L164.00460012335526,21.920075418341543L165.322265625,21.78988837500696L166.63993112664474,21.588611732282622L167.95759662828945,21.820811544057417L169.2752621299342,22.5132948087317L170.59292763157896,20.831006550892955L171.9105931332237,20.2157748106533L173.2282586348684,21.176757270361648L174.54592413651315,22.59013530010474L175.8635896381579,22.447378119294402L177.18125513980263,23.73907824630859L178.49892064144737,23.79748125274354L179.8165861430921,25.22473045176301L181.13425164473682,26.526477288459812L182.45191714638156,24.69402689444914L183.76958264802633,26.501685172155486L185.08724814967107,27.904479194560192L186.40491365131578,28.626527017207405L187.72257915296052,27.008595784952668L189.04024465460526,25.181132405080188L190.35791015624997,24.06194337312789L191.67557565789474,23.663906550899238L192.99324115953948,23.714214177434755L194.31090666118422,23.228363497303967L195.62857216282893,22.045672016020568L196.94623766447367,22.408375938698423L198.26390316611844,21.216753604814045L199.58156866776315,22.43523202458468L200.8992341694079,22.62306233152317L202.21689967105263,22.478461464046504L203.53456517269734,22.137318808861043L204.8522306743421,21.629985364515818L206.16989617598685,21.488213435025187L207.4875616776316,22.566274128223395L208.8052271792763,22.499215867082444L210.12289268092104,22.274623077685497L211.44055818256578,22.104695643589057L212.75822368421052,21.32449305852663L214.07588918585526,22.284600328743174L215.3935546875,22.54596272966214L216.71122018914474,23.80404074958582L218.02888569078945,22.7333799736913L219.34655119243422,22.14990544634661L220.66421669407896,23.586278033461664L221.98188219572367,24.55377600260632L223.2995476973684,22.431564605551046L224.61721319901315,21.674153424243944L225.93487870065786,24.32999704277121L227.25254420230263,24.98958172064516L228.57020970394737,24.63164267575464L229.8878752055921,24.375399514632765L231.20554070723682,23.5696417056096L232.52320620888156,23.02940545270516L233.84087171052633,23.292693257985963L235.15853721217104,24.950755998050564L236.47620271381578,24.58138684822186L237.79386821546052,23.277695958306587L239.11153371710523,25.08800273364692L240.42919921875,24.278529312205855L241.74686472039474,22.488542202475116L243.06453022203948,24.35067042537684L244.3821957236842,23.49823386835757L245.69986122532893,24.767186724359238L247.01752672697367,24.14766884277557L248.33519222861844,22.782025959563498L249.65285773026315,24.474501573680254L250.9705232319079,25.613199470192527L252.28818873355263,24.748157328112757L253.60585423519734,23.96681211044633L254.9235197368421,24.088392018145264L256.2411852384868,22.56479190461228L257.55885074013156,22.177591877455225L258.8765162417763,22.50078590316352L260.19418174342104,21.94578824576194L261.5118472450658,21.454566307456297L262.8295127467105,21.32389478274851L264.14717824835526,23.29916268262726" style="fill: none;" fill="none"></path></g><g><path stroke="rgb(204, 51, 17)" stroke-width="2px" d="M0.6140779194078958,173.0652365215703L1.9317434210526325,158.9533902504793L3.2494089226973695,150.07033140306416L4.567074424342106,159.34568259948216L5.884739925986843,162.02416287200802L7.20240542763158,176.38025877598068L8.520070929276317,158.75824888824522L9.837736430921053,146.35851133135407L11.15540193256579,130.21899201258424L12.473067434210526,118.9982876949882L13.790732935855264,111.10797486347019L15.1083984375,105.01421071778223L16.426063939144736,100.12079354916547L17.743729440789473,95.71086966388572L19.061394942434212,93.07575573524373L20.37906044407895,93.839195799815L21.696725945723685,92.88517955558639L23.01439144736842,97.77133274971547L24.33205694901316,95.44424914331513L25.649722450657894,92.6574131133043L26.967387952302634,91.55298428076598L28.285053453947366,90.47702539012516L29.602718955592106,89.82961884836187L30.920384457236842,88.80561863718137L32.23804995888158,87.2197106703867L33.555715460526315,87.96458142938253L34.87338096217105,86.77085489906621L36.19104646381579,84.43511052460093L37.50871196546053,83.04294798728576L38.82637746710526,84.59762491898742L40.14404296875,83.99447519516247L41.46170847039473,83.38137032636023L42.77937397203947,82.77935449033986L44.09703947368421,81.19888972681952L45.41470497532895,81.00673794748664L46.73237047697369,81.45647419173196L48.050035978618425,78.5044546704428L49.36770148026316,69.98658746816041L50.6853669819079,60.80972400492412L52.00303248355264,53.312442455748155L53.32069798519737,47.88703110821618L54.63836348684211,44.058959784844895L55.95602898848685,39.28388257670865L57.27369449013158,36.75735328384775L58.591359991776315,34.32801811017161L59.909025493421055,32.13163643553014L61.226690995065795,30.713585784564216L62.544356496710535,29.406918763576005L63.86202199835526,31.008669989223833L65.1796875,30.079495934747985L66.49735300164474,29.133424237480288L67.81501850328948,29.048793590637978L69.1326840049342,26.640298883787892L70.45034950657895,25.279258308914617L71.76801500822368,26.36060128572125L73.08568050986842,27.5071240122481L74.40334601151316,26.316356891515586L75.72101151315789,28.65623668855297L77.03867701480263,28.223842838910436L78.35634251644737,28.42593529850719L79.67400801809211,26.629703396166644L80.99167351973685,25.094437621201692L82.30933902138158,24.44185065477897L83.62700452302632,26.278640673919064L84.94467002467105,29.824108088569293L86.26233552631578,28.154263875048866L87.58000102796053,26.946120687852744L88.89766652960526,27.982091475562616L90.21533203125001,28.263122309536616L91.53299753289474,30.769094873480668L92.85066303453947,29.949629391321476L94.16832853618422,30.21307861153413L95.48599403782895,32.38928219695452L96.80365953947368,33.056198996013634L98.12132504111842,31.198658786477505L99.43899054276315,31.622631984311127L100.7566560444079,34.01036579660293L102.07432154605263,33.24252950274162L103.39198704769737,32.92789721269777L104.70965254934211,31.847300738780802L106.02731805098684,30.839821341534577L107.34498355263158,29.305905615272017L108.66264905427632,29.598991009837846L109.98031455592105,28.865306278299904L111.2979800575658,28.513704659240027L112.61564555921053,32.7866745951983L113.93331106085526,36.780128444284614L115.2509765625,35.385211939794225L116.56864206414474,33.71235314392721L117.88630756578947,31.56996295346578L119.20397306743422,30.471948273507067L120.52163856907895,34.8094767795616L121.83930407072368,34.6352619085128L123.15696957236842,32.47108222231625L124.47463507401315,32.88011915847114L125.7923005756579,34.558622386965965L127.10996607730263,37.66710261551579L128.42763157894737,35.191841656616795L129.7452970805921,32.385758156358804L131.06296258223685,31.69570656275212L132.3806280838816,29.942391907562566L133.69829358552633,31.42531384786252L135.01595908717104,31.82812962493636L136.33362458881578,30.3180740257147L137.65129009046052,32.20253340682184L138.96895559210526,31.181112959706446L140.28662109375,29.107942530710353L141.60428659539474,36.347760065167975L142.92195209703948,39.559686210771446L144.23961759868422,40.445461193315786L145.55728310032893,38.31504557861226L146.87494860197367,36.31495993511573L148.1926141036184,35.290521805322285L149.51027960526318,37.634716095703034L150.8279451069079,33.84530055114L152.14561060855263,32.099931890017125L153.46327611019737,29.936722655120786L154.78094161184208,32.238538057235445L156.09860711348685,32.12192798805888L157.4162726151316,34.79518905518324L158.7339381167763,34.35326172691378L160.05160361842104,32.659407992717654L161.36926912006578,33.13469366300805L162.68693462171055,33.85422169072128L164.00460012335526,32.04958928717726L165.322265625,30.555962357005466L166.63993112664474,30.14179951526132L167.95759662828945,29.23879431872193L169.2752621299342,27.936765510675738L170.59292763157896,29.385057348706432L171.9105931332237,28.558062332497144L173.2282586348684,27.34101591460961L174.54592413651315,26.391542211969185L175.8635896381579,33.53031015194209L177.18125513980263,32.61471201947951L178.49892064144737,33.92297956068016L179.8165861430921,31.685476296598438L181.13425164473682,30.91890967913006L182.45191714638156,28.358810890192256L183.76958264802633,29.0974730480552L185.08724814967107,32.60838793854623L186.40491365131578,30.308759836676003L187.72257915296052,32.43893137990231L189.04024465460526,32.45059023201136L190.35791015624997,32.31395580985657L191.67557565789474,30.53678433812782L192.99324115953948,31.25408624388435L194.31090666118422,30.264936372197944L195.62857216282893,32.53960258300631L196.94623766447367,34.051693113667945L198.26390316611844,35.22862769832781L199.58156866776315,39.33946117831318L200.8992341694079,36.323727698605474L202.21689967105263,38.816717670081935L203.53456517269734,39.36385145128561L204.8522306743421,38.853369768716185L206.16989617598685,39.23086179034285L207.4875616776316,35.992666167339145L208.8052271792763,36.10552025652804L210.12289268092104,33.28830752134519L211.44055818256578,33.19575130286124L212.75822368421052,32.532255363477645L214.07588918585526,30.47424448891749L215.3935546875,30.611864856459437L216.71122018914474,29.88048657958619L218.02888569078945,30.01373857684276L219.34655119243422,28.077268432961635L220.66421669407896,29.10177609792459L221.98188219572367,27.579444748044867L223.2995476973684,30.90783662068787L224.61721319901315,28.478768947666104L225.93487870065786,28.336655161116376L227.25254420230263,31.192119668969912L228.57020970394737,29.764598222579416L229.8878752055921,27.714001047493745L231.20554070723682,27.200664538761295L232.52320620888156,31.27869707023328L233.84087171052633,29.515563785541808L235.15853721217104,37.235548394786534L236.47620271381578,34.49212770386233L237.79386821546052,31.351087299403037L239.11153371710523,28.516291323234885L240.42919921875,28.210742750629418L241.74686472039474,27.37362456370689L243.06453022203948,27.03999414396814L244.3821957236842,27.808861015966528L245.69986122532893,26.816209401115984L247.01752672697367,28.91786213195027L248.33519222861844,29.66841605337307L249.65285773026315,28.25883826508985L250.9705232319079,25.978532952075437L252.28818873355263,25.602510635932283L253.60585423519734,24.436507705631584L254.9235197368421,25.410577663797746L256.2411852384868,24.54898235822951L257.55885074013156,23.568424326023088L258.8765162417763,22.207304896750028L260.19418174342104,23.587157618728494L261.5118472450658,23.319598859871377L262.8295127467105,22.581351377594835L264.14717824835526,22.00514903370284L265.46484375,21.832584728908156L266.78250925164474,22.174181697596225" style="fill: none;" fill="none"></path></g></g></g></g><g opacity="0.2"><g><g><g><path stroke="rgb(255, 112, 67)" stroke-width="2px" d="M7.20240542763158,331.3729657816636L8.520070929276317,97.08995253020838L9.837736430921053,115.83416928652713L11.15540193256579,131.92660129336306L12.473067434210526,107.728634078076L13.790732935855264,90.98411066225954L15.1083984375,87.16939436751917L16.426063939144736,82.061858937916L17.743729440789473,88.74266373052096L19.061394942434212,86.5010601515519L20.37906044407895,109.17669697962309L21.696725945723685,93.52897294225191L23.01439144736842,88.43274394396731L24.33205694901316,85.05823817333422L25.649722450657894,87.24759473238493L26.967387952302634,88.84203055542395L28.285053453947366,106.01859339412891L29.602718955592106,66.61182131988124L30.920384457236842,77.56990935370796L32.23804995888158,75.7094692385573L33.555715460526315,76.58409115859081L34.87338096217105,72.40760345248172L36.19104646381579,60.48667606022483L37.50871196546053,81.19423644552734L38.82637746710526,63.17860941535549L40.14404296875,73.75543508689026L41.46170847039473,74.68408536726237L42.77937397203947,73.5564628880024L44.09703947368421,72.0436890751939L45.41470497532895,52.0614198786083L46.73237047697369,70.2348439458044L48.050035978618425,74.28115989071445L49.36770148026316,69.93265831806785L50.6853669819079,74.40387684401087L52.00303248355264,80.80408067527571L53.32069798519737,36.94514184720892L54.63836348684211,40.38786311330293L55.95602898848685,74.05283502246205L57.27369449013158,69.39816643790195L58.591359991776315,44.87494907931277L59.909025493421055,52.63033558403819L61.226690995065795,50.6809411126187L62.544356496710535,71.92793671143681L63.86202199835526,56.7401036962208L65.1796875,44.8401368166271L66.49735300164474,34.81560783175418L67.81501850328948,36.037122260545424L69.1326840049342,37.059355966969534L70.45034950657895,35.25079769285101L71.76801500822368,26.3107223762713L73.08568050986842,29.347076871671177L74.40334601151316,32.73938158446864L75.72101151315789,28.777914665523326L77.03867701480263,38.22597866168774L78.35634251644737,25.675017698890287L79.67400801809211,28.55206593674107L80.99167351973685,25.152735158317967L82.30933902138158,32.15969141217282L83.62700452302632,32.59885072999252L84.94467002467105,39.247468094976334L86.26233552631578,34.82801238401312L87.58000102796053,33.53366414953534L88.89766652960526,28.957621640556745L90.21533203125001,26.264968662362342L91.53299753289474,22.21667941956772L92.85066303453947,23.14298458852266L94.16832853618422,22.45888943471406L95.48599403782895,22.00047125434876L96.80365953947368,26.257106084622826L98.12132504111842,23.440134047558438L99.43899054276315,23.945088382821343L100.7566560444079,17.842055032730105L102.07432154605263,20.206763455742283L103.39198704769737,24.84304755953738L104.70965254934211,24.3145118523648L106.02731805098684,24.37516057094776L107.34498355263158,24.627723616248687L108.66264905427632,20.48489260131435L109.98031455592105,18.63747309142665L111.2979800575658,22.57948076659755L112.61564555921053,18.25188235543904L113.93331106085526,26.02362696587412L115.2509765625,21.346512801220552L116.56864206414474,22.402505973715535L117.88630756578947,17.983288811834246L119.20397306743422,35.74288628096329L120.52163856907895,24.39491561558372L121.83930407072368,21.570939777474663L123.15696957236842,26.00482293691134L124.47463507401315,24.842268299203173L125.7923005756579,21.344890667463613L127.10996607730263,26.408702435844827L128.42763157894737,38.904361360148386L129.7452970805921,36.97223148094981L131.06296258223685,17.285656792791258L132.3806280838816,22.684035238868308L133.69829358552633,24.054801876570053L135.01595908717104,22.918074152795892L136.33362458881578,35.925659406862756L137.65129009046052,31.114830530166632L138.96895559210526,21.818296091481265L140.28662109375,23.758355342162282L141.60428659539474,22.499958044654452L142.92195209703948,20.330751726552055L144.23961759868422,19.957336535704773L145.55728310032893,23.7176366042087L146.87494860197367,18.25812916073046L148.1926141036184,41.3815695301859L149.51027960526318,22.042265053498117L150.8279451069079,17.700127870961246L152.14561060855263,18.333447057523223L153.46327611019737,23.025373529835747L154.78094161184208,19.167274699060535L156.09860711348685,23.51512751759981L157.4162726151316,17.174162132564344L158.7339381167763,22.79830342975416L160.05160361842104,16.72359698797527L161.36926912006578,23.88546701561778L162.68693462171055,16.985193091844263L164.00460012335526,39.62669434145877L165.322265625,19.217599013378745L166.63993112664474,50.0943695944736L167.95759662828945,31.260488599576455L169.2752621299342,30.598180928581634L170.59292763157896,19.653825767818248L171.9105931332237,26.979598098654506L173.2282586348684,15.416208070353466L174.54592413651315,54.03055985270049L175.8635896381579,24.000056452600585L177.18125513980263,46.34857490047656L178.49892064144737,26.99399374058372L179.8165861430921,30.562595766870604L181.13425164473682,33.2196953898982L182.45191714638156,19.949639351995366L183.76958264802633,39.66107721579703L185.08724814967107,34.66809226015995L186.40491365131578,20.08889476404693L187.72257915296052,17.93119605365552L189.04024465460526,24.48195422393398L190.35791015624997,40.875800947390104L191.67557565789474,19.946808569556786L192.99324115953948,17.824065251300215L194.31090666118422,19.995504388809213L195.62857216282893,20.508601199401046L196.94623766447367,17.125116441325147L198.26390316611844,17.178246092846518L199.58156866776315,22.81423532777083L200.8992341694079,23.99672312676279L202.21689967105263,22.075188007455118L203.53456517269734,22.325410091098988L204.8522306743421,23.51477764561302L206.16989617598685,20.320891697833407L207.4875616776316,33.651434240943516L208.8052271792763,18.03706095554954L210.12289268092104,26.904658699738356L211.44055818256578,18.50447084597537L212.75822368421052,20.8966410392962L214.07588918585526,15.113575163088345L215.3935546875,23.671202230252714L216.71122018914474,26.274167114960516L218.02888569078945,22.923411290921663L219.34655119243422,28.676903442282423L220.66421669407896,20.264727701990235L221.98188219572367,21.894545920020654L223.2995476973684,22.212007038216846L224.61721319901315,20.72438951823586L225.93487870065786,21.1858452235774L227.25254420230263,22.416313194576073L228.57020970394737,18.233052881240837L229.8878752055921,25.599089116447846L231.20554070723682,25.757981888921638L232.52320620888156,21.348325774243L233.84087171052633,20.222272326720383L235.15853721217104,23.107358078304095L236.47620271381578,18.263218207811054L237.79386821546052,16.043884775964838L239.11153371710523,15.939540226886141L240.42919921875,19.068922502919257L241.74686472039474,22.443711351796196L243.06453022203948,20.595579375317218L244.3821957236842,18.24388619021366L245.69986122532893,17.946272355631784L247.01752672697367,21.233898550635885L248.33519222861844,28.92104411466498L249.65285773026315,22.344404959327296L250.9705232319079,28.929924501820608L252.28818873355263,18.328510681855043L253.60585423519734,20.697233090752043L254.9235197368421,20.72587170319809L256.2411852384868,20.264250603826422L257.55885074013156,25.273724072004626L258.8765162417763,20.10261610723796L260.19418174342104,29.597321219896024L261.5118472450658,25.379868871488064L262.8295127467105,22.076072229385385L264.14717824835526,20.89424918716832" style="fill: none;" fill="none"></path></g><g><path stroke="rgb(238, 51, 119)" stroke-width="2px" d="M0.6140779194078958,185.28675484095123L1.9317434210526325,176.3066605303915L3.2494089226973695,170.89044497429697L4.567074424342106,190.20758347029434L7.20240542763158,214.0166775142268L8.520070929276317,97.92756356018467L9.837736430921053,104.46969738598875L11.15540193256579,97.97181600520486L12.473067434210526,91.90015822069269L13.790732935855264,107.11936700027869L15.1083984375,80.21198555313914L16.426063939144736,91.60767637202615L17.743729440789473,91.0735172678295L19.061394942434212,87.42827896349053L20.37906044407895,83.1904934865048L21.696725945723685,80.47785089041058L23.01439144736842,83.36191485676012L24.33205694901316,97.88212314073664L25.649722450657894,92.85514335060118L26.967387952302634,99.76245129163641L28.285053453947366,107.52578148078919L29.602718955592106,95.88703538784227L30.920384457236842,108.8123466538881L32.23804995888158,95.34362216959502L33.555715460526315,102.17828396355479L34.87338096217105,84.73796774211684L36.19104646381579,80.62432837591673L37.50871196546053,80.6960227121554L38.82637746710526,88.29203417767978L40.14404296875,79.92783065775822L41.46170847039473,111.99012576765763L42.77937397203947,97.8163503878744L44.09703947368421,72.42896174573899L45.41470497532895,87.81187224849903L46.73237047697369,79.90961982084575L48.050035978618425,74.98931779481315L49.36770148026316,80.57357507083292L50.6853669819079,77.98178263237602L52.00303248355264,76.83275889617519L53.32069798519737,65.05004604680914L54.63836348684211,77.75731291607806L55.95602898848685,81.36897921416633L57.27369449013158,75.44052470476691L58.591359991776315,74.53349373010586L59.909025493421055,77.51168985994238L61.226690995065795,32.50611556956643L62.544356496710535,62.194560260471555L63.86202199835526,40.787728626351615L65.1796875,26.624471670753085L66.49735300164474,47.633349365133995L67.81501850328948,32.93749818731609L69.1326840049342,34.5794506019793L70.45034950657895,44.62894772409138L71.76801500822368,59.808490562338584L73.08568050986842,49.76034998933893L74.40334601151316,35.572272796932026L75.72101151315789,35.45560321195502L77.03867701480263,34.23374845314025L78.35634251644737,21.83727505643744L79.67400801809211,21.408503755971015L80.99167351973685,57.140700759787315L82.30933902138158,15.579782766141399L83.62700452302632,31.866415990227154L84.94467002467105,37.474116484692225L86.26233552631578,34.09674494442188L87.58000102796053,29.60000569223103L88.89766652960526,34.842516168192816L90.21533203125001,39.43748357100237L91.53299753289474,24.06546024954946L92.85066303453947,19.79491959812766L94.16832853618422,29.599433174434466L95.48599403782895,30.67047402301587L96.80365953947368,33.74374637433102L98.12132504111842,42.335479598898644L99.43899054276315,40.044368338635095L100.7566560444079,55.50561696835569L102.07432154605263,33.56052795681201L103.39198704769737,23.090567403592562L104.70965254934211,30.84240747863368L106.02731805098684,34.865416880055484L107.34498355263158,33.81907063243265L108.66264905427632,38.818963969481615L109.98031455592105,30.259829272119617L111.2979800575658,25.569127351760866L112.61564555921053,30.944185239591103L113.93331106085526,35.93227834872196L115.2509765625,49.3092504948064L116.56864206414474,31.52236142038044L117.88630756578947,32.811913227984775L119.20397306743422,37.44918333465174L120.52163856907895,42.62302348156979L121.83930407072368,25.22740420160795L123.15696957236842,52.23774581798755L124.47463507401315,27.98329177043312L125.7923005756579,22.20340972930506L127.10996607730263,22.884330589997134L128.42763157894737,33.64971032624496L129.7452970805921,29.649499855744217L131.06296258223685,36.77299528774463L132.3806280838816,34.542119260988734L133.69829358552633,34.9716093893553L135.01595908717104,30.415706784198168L136.33362458881578,41.10498300201015L137.65129009046052,28.054528887598135L138.96895559210526,33.04042734517549L140.28662109375,40.859182028017536L141.60428659539474,40.95903549304762L142.92195209703948,30.323585490076173L144.23961759868422,30.186543813504674L145.55728310032893,31.897440093492218L146.87494860197367,32.15615770510623L148.1926141036184,26.050633902599937L149.51027960526318,23.82038128411143L150.8279451069079,28.627317039790903L152.14561060855263,39.27412515971535L153.46327611019737,29.326358088744307L154.78094161184208,25.959679908652056L156.09860711348685,59.33233228191576L157.4162726151316,36.78791891830845L158.7339381167763,33.40592906781247L160.05160361842104,57.16052895947507L161.36926912006578,34.248468521820875L162.68693462171055,22.951194307327267L164.00460012335526,22.666484387749122L165.322265625,33.09601882322211L166.63993112664474,32.61608987697803L167.95759662828945,28.559441874353507L169.2752621299342,26.85186301693164L170.59292763157896,35.10987879853499L171.9105931332237,33.73180619761819L173.2282586348684,28.088068888513675L174.54592413651315,28.278055738649865L175.8635896381579,29.439086842888283L177.18125513980263,19.645632402018496L178.49892064144737,19.640670581114918L179.8165861430921,34.70733517446016L181.13425164473682,21.60261273424249L182.45191714638156,29.97660471815813L183.76958264802633,28.923311921270265L185.08724814967107,27.668896803102992L186.40491365131578,25.35558457495038L187.72257915296052,20.774631135539007L189.04024465460526,29.95447690532082L190.35791015624997,37.43310194587708L191.67557565789474,28.393926979366103L192.99324115953948,27.468455141870592L194.31090666118422,16.352052021930103L195.62857216282893,27.3718332217367L196.94623766447367,35.4551865462253L198.26390316611844,18.787288276170422L199.58156866776315,21.34671636310377L200.8992341694079,24.027492777673817L202.21689967105263,34.30653772966485L203.53456517269734,27.034251283645624L204.8522306743421,32.2767713015707L206.16989617598685,25.222976730647847L207.4875616776316,23.55382017868444L208.8052271792763,29.705711561403785L210.12289268092104,37.292510658966876L211.44055818256578,27.488894027208026L212.75822368421052,31.449937919114767L214.07588918585526,25.82330298885547L215.3935546875,21.423071153239203L216.71122018914474,19.483959737576942L218.02888569078945,23.566329692539426L219.34655119243422,30.023757920014233L220.66421669407896,29.37591268469158L221.98188219572367,21.566983043369486L223.2995476973684,18.972065214357883L224.61721319901315,21.89005483597204L225.93487870065786,20.455007172333573L227.25254420230263,25.57536461508902L228.57020970394737,23.54133292941043L229.8878752055921,33.76068335914612L231.20554070723682,22.999705648623006L232.52320620888156,22.182802269283098L233.84087171052633,35.139156722520525L235.15853721217104,21.37573029277199L236.47620271381578,23.46407165276377L237.79386821546052,24.51849358197263L239.11153371710523,22.090525123094263L240.42919921875,22.5072735498328L241.74686472039474,18.766315040889534L243.06453022203948,25.136593337109215L244.3821957236842,25.72871350689938" style="fill: none;" fill="none"></path></g><g><path stroke="rgb(51, 187, 238)" stroke-width="2px" d="M7.20240542763158,255.09806096277737L8.520070929276317,73.1796184547073L9.837736430921053,119.51625070140236L11.15540193256579,92.6972652068891L12.473067434210526,103.3760611683695L13.790732935855264,66.5376349409003L15.1083984375,71.10501811820582L16.426063939144736,64.82165199932298L17.743729440789473,72.64695346292696L19.061394942434212,86.86993575337058L20.37906044407895,88.86392140950655L21.696725945723685,90.05416841496918L23.01439144736842,107.46314485319037L24.33205694901316,96.72097753293889L25.649722450657894,149.84572130454214L26.967387952302634,107.59401924083107L28.285053453947366,114.31268733887923L29.602718955592106,101.08604087257386L30.920384457236842,76.52155273369738L32.23804995888158,94.4417428362997L33.555715460526315,68.63542363969904L34.87338096217105,65.13589747589513L36.19104646381579,41.361016141289156L37.50871196546053,45.41595931314167L38.82637746710526,49.034012564107L40.14404296875,33.220433301724896L41.46170847039473,37.6894118020911L42.77937397203947,41.406505860880806L44.09703947368421,31.981218531056463L45.41470497532895,33.63022881788957L46.73237047697369,35.371878845516L48.050035978618425,37.64014664569655L49.36770148026316,30.99993256970455L50.6853669819079,33.679487612975265L52.00303248355264,25.31241355243483L53.32069798519737,37.243833923641006L54.63836348684211,42.74138517470109L55.95602898848685,24.674491958919333L57.27369449013158,23.86031121976752L58.591359991776315,20.832385458594874L59.909025493421055,26.393244455337527L61.226690995065795,25.081625267329972L62.544356496710535,20.36683307035345L63.86202199835526,29.048941409763533L65.1796875,30.269737010654644L66.49735300164474,23.532907375837638L67.81501850328948,23.499007960972037L69.1326840049342,25.540577797638747L70.45034950657895,23.569453095185136L71.76801500822368,29.555975893020634L73.08568050986842,23.53146017807409L74.40334601151316,25.905510183133572L75.72101151315789,27.0840444286748L77.03867701480263,21.387110674305962L78.35634251644737,28.16701591200578L79.67400801809211,20.521317455793675L80.99167351973685,23.868456875750894L82.30933902138158,24.404743837758122L83.62700452302632,24.181512787567943L84.94467002467105,19.847088692012587L86.26233552631578,25.476796134446793L87.58000102796053,24.37142012134351L88.89766652960526,26.311756088959545L90.21533203125001,28.114512849406196L91.53299753289474,33.93613143790395L92.85066303453947,26.1566546565608L94.16832853618422,22.470947295640656L95.48599403782895,25.75496344787197L96.80365953947368,27.40690311743083L98.12132504111842,32.83333811619408L99.43899054276315,22.578380260166373L100.7566560444079,24.61221792592501L102.07432154605263,23.33863300353603L103.39198704769737,34.53260910425688L104.70965254934211,28.9705287362149L106.02731805098684,39.10256702131974L107.34498355263158,30.780212962L108.66264905427632,32.4687269767962L109.98031455592105,37.22207188606262L111.2979800575658,21.57902500102395L112.61564555921053,21.437212342814398L113.93331106085526,23.91717814023872L115.2509765625,24.75254839917233L116.56864206414474,27.78944678647895L117.88630756578947,23.986306483519712L119.20397306743422,23.264676426837326L120.52163856907895,20.165402225594782L121.83930407072368,30.236807695388798L123.15696957236842,28.655892039148423L124.47463507401315,25.566919977589652L125.7923005756579,38.294992501409425L127.10996607730263,27.76236033339249L128.42763157894737,25.71754304855749L129.7452970805921,31.290208634527104L131.06296258223685,22.655278942208547L132.3806280838816,34.9311514650646L133.69829358552633,30.60801233141046L135.01595908717104,24.77239250213222L136.33362458881578,44.731654236141004L137.65129009046052,37.75186395173324L138.96895559210526,23.641886138414076L140.28662109375,21.23220644248159L141.60428659539474,17.9680025866659L142.92195209703948,27.3328415791361L144.23961759868422,29.62358706414073L145.55728310032893,22.102086801930476L146.87494860197367,19.340569474772405L148.1926141036184,25.24307210530733L149.51027960526318,27.24432078582363L150.8279451069079,26.247366920772354L152.14561060855263,22.577944510510093L153.46327611019737,19.67479264179029L154.78094161184208,24.463143833662333L156.09860711348685,19.732057144064658L157.4162726151316,19.821974244669857L158.7339381167763,27.147282199960014L160.05160361842104,17.830159385179215L161.36926912006578,20.28738032280771L162.68693462171055,23.81085204345302L164.00460012335526,20.428092474586084L165.322265625,21.26914020166899L166.63993112664474,20.783505161385786L167.95759662828945,22.749610791156158L169.2752621299342,25.283227867427637L170.59292763157896,14.101853519540088L171.9105931332237,17.754847849695313L173.2282586348684,25.02068710919431L174.54592413651315,28.24364741907621L175.8635896381579,21.876349396053126L177.18125513980263,28.90587875436481L178.49892064144737,24.031093278483336L179.8165861430921,30.93372724784049L181.13425164473682,31.733464635246673L182.45191714638156,17.364225318406753L183.76958264802633,33.73231828298067L185.08724814967107,33.51565528417889L186.40491365131578,31.51471830779628L187.72257915296052,20.53687085593375L189.04024465460526,17.87127888559041L190.35791015624997,19.585187245318775L191.67557565789474,22.07175926198457L192.99324115953948,23.91544468357689L194.31090666118422,21.284960776780792L195.62857216282893,17.314906090886964L196.94623766447367,23.85919162940979L198.26390316611844,16.450264269276673L199.58156866776315,27.309145703667095L200.8992341694079,23.37438355927719L202.21689967105263,21.90005799413982L203.53456517269734,20.772748188119184L204.8522306743421,19.60065158713492L206.16989617598685,20.9211257170627L207.4875616776316,26.878516901016248L208.8052271792763,22.2309828225186L210.12289268092104,21.376251920097758L211.44055818256578,21.424985907203272L212.75822368421052,18.20368271827698L214.07588918585526,26.125029409609347L215.3935546875,23.59141233333789L216.71122018914474,28.836352829280646L218.02888569078945,18.450736870113165L219.34655119243422,19.81600733696788L220.66421669407896,29.331768381921876L221.98188219572367,28.42376787918493L223.2995476973684,13.942719017329967L224.61721319901315,18.64450869901556L225.93487870065786,34.95337151688024L227.25254420230263,27.62792043214095L228.57020970394737,23.199886496192526L229.8878752055921,23.350426870145302L231.20554070723682,20.346610469516964L232.52320620888156,20.86846044108743L233.84087171052633,24.34584447910912L235.15853721217104,31.583006958308978L236.47620271381578,23.103910248906995L237.79386821546052,18.062932398645497L239.11153371710523,32.32922983500833L240.42919921875,21.04063562644155L241.74686472039474,15.32859376355222L243.06453022203948,31.799183316983676L244.3821957236842,20.088487640280473L245.69986122532893,29.842998148366018L247.01752672697367,21.66959731644078L248.33519222861844,17.31945442671526L249.65285773026315,31.244404030147347L250.9705232319079,30.167991056241487L252.28818873355263,21.287988759793727L253.60585423519734,20.84143123978063L254.9235197368421,24.574711648941047L256.2411852384868,16.470391450480424L257.55885074013156,20.628791768826943L258.8765162417763,23.793562005996698L260.19418174342104,19.725797616155532L261.5118472450658,19.48967855423375L262.8295127467105,20.801208683917395L264.14717824835526,31.20023428214224" style="fill: none;" fill="none"></path></g><g><path stroke="rgb(204, 51, 17)" stroke-width="2px" d="M0.6140779194078958,173.0652365215703L1.9317434210526325,147.66391323360645L3.2494089226973695,137.2787266627864L4.567074424342106,177.4511681348901L5.884739925986843,168.34966188360517L7.20240542763158,214.98782036861618L8.520070929276317,106.74822597734551L9.837736430921053,107.16121487055327L11.15540193256579,76.49196280739183L12.473067434210526,80.13954018487429L13.790732935855264,82.93558709405598L15.1083984375,82.73295555225172L16.426063939144736,81.89221714381168L17.743729440789473,79.04092664066114L19.061394942434212,82.99887416548478L20.37906044407895,96.78551142090247L21.696725945723685,89.1765272587224L23.01439144736842,116.87583997214468L24.33205694901316,86.30359876351608L25.649722450657894,81.67071915270152L26.967387952302634,87.18620174066645L28.285053453947366,86.21288570414092L29.602718955592106,87.2591007497687L30.920384457236842,84.73379631383796L32.23804995888158,80.90603575771735L33.555715460526315,90.93280829670555L34.87338096217105,82.01038004604139L36.19104646381579,75.11472296019839L37.50871196546053,77.48506917393834L38.82637746710526,90.80670966168454L40.14404296875,81.5848629526339L41.46170847039473,80.9313796097605L42.77937397203947,80.37319901059803L44.09703947368421,74.88103762695036L45.41470497532895,80.23852056026459L46.73237047697369,83.25468942993567L48.050035978618425,66.70020852570785L49.36770148026316,35.92396411805404L50.6853669819079,24.109893991871893L52.00303248355264,23.328299057307998L53.32069798519737,26.188270361548984L54.63836348684211,28.74830277282314L55.95602898848685,20.185198618738273L57.27369449013158,26.651923899098453L58.591359991776315,24.611206477817746L59.909025493421055,23.346492400621123L61.226690995065795,25.041580828114554L62.544356496710535,24.180396377864632L63.86202199835526,37.415532010831335L65.1796875,26.362866024920827L66.49735300164474,25.349191459555367L67.81501850328948,28.710274868513412L69.1326840049342,17.00640805686148L70.45034950657895,19.835135792682053L71.76801500822368,30.685947906795302L73.08568050986842,32.09319347010161L74.40334601151316,21.55330622934041L75.72101151315789,38.01572786220751L77.03867701480263,26.494271581850565L78.35634251644737,29.234303588365247L79.67400801809211,19.444786797674084L80.99167351973685,18.953382050263254L82.30933902138158,21.831505349309815L83.62700452302632,33.625794985620594L84.94467002467105,44.00596884506626L86.26233552631578,21.47489037513734L87.58000102796053,22.113549880479507L88.89766652960526,32.12597329460948L90.21533203125001,29.38724535640917L91.53299753289474,40.79298306746232L92.85066303453947,26.67176800205832L94.16832853618422,31.266875353662602L95.48599403782895,41.0940956219121L96.80365953947368,35.723865967499584L98.12132504111842,23.768498449124788L99.43899054276315,33.31852468420331L100.7566560444079,43.56130063378184L102.07432154605263,30.17118443328457L103.39198704769737,31.669368087266633L104.70965254934211,27.524914938575336L106.02731805098684,26.809903823752155L107.34498355263158,23.170242796948074L108.66264905427632,30.771332574844354L109.98031455592105,25.930567378696637L111.2979800575658,27.107298193178682L112.61564555921053,49.87855424007617L113.93331106085526,52.753943766644134L115.2509765625,29.805545942507294L116.56864206414474,27.020917980294474L117.88630756578947,23.00040221194217L119.20397306743422,26.07988956200449L120.52163856907895,52.159590777447356L121.83930407072368,33.93840242516367L123.15696957236842,23.81436348593863L124.47463507401315,34.516266901819336L125.7923005756579,41.27263529677141L127.10996607730263,50.10102352353147L128.42763157894737,25.290797824960002L129.7452970805921,21.16142415889941L131.06296258223685,28.935500189028282L132.3806280838816,22.92913328823291L133.69829358552633,37.35700160809568L135.01595908717104,33.43939273302179L136.33362458881578,24.277851629457974L137.65129009046052,39.74037093062151L138.96895559210526,27.095431171517617L140.28662109375,20.81526081516868L141.60428659539474,65.30703020176135L142.92195209703948,52.40739079274629L144.23961759868422,43.98856112339623L145.55728310032893,29.79338311998468L146.87494860197367,28.314617361269494L148.1926141036184,31.1927692862059L149.51027960526318,47.01149325712103L150.8279451069079,18.687638373023596L152.14561060855263,25.118457245575755L153.46327611019737,21.283885715585015L154.78094161184208,41.44579966565182L156.09860711348685,31.6554877113543L157.4162726151316,45.488233323649354L158.7339381167763,32.58555241384004L160.05160361842104,25.883993055945943L161.36926912006578,35.0358363441668L162.68693462171055,36.73233380157069L164.00460012335526,24.83105967300816L165.322265625,24.581454636322828L166.63993112664474,28.485148148285717L167.95759662828945,25.626773532566272L169.2752621299342,22.728650278492978L170.59292763157896,35.17822470082734L171.9105931332237,25.250082267660844L173.2282586348684,22.472830243060457L174.54592413651315,22.593647401408145L175.8635896381579,62.0853819118299L177.18125513980263,28.95231948962964L178.49892064144737,39.15604972548233L179.8165861430921,22.735463240272118L181.13425164473682,27.85264320925663L182.45191714638156,18.11841573444166L183.76958264802633,32.05212167950682L185.08724814967107,46.65204750050997L186.40491365131578,21.110247429195198L187.72257915296052,40.95961755280746L189.04024465460526,32.49722564044752L190.35791015624997,31.767418121237515L191.67557565789474,23.42809845121284L192.99324115953948,34.123293866910444L194.31090666118422,26.308336885452263L195.62857216282893,41.63826742623982L196.94623766447367,40.100055236314475L198.26390316611844,39.93636603696723L199.58156866776315,55.78279509825456L200.8992341694079,24.26079377977471L202.21689967105263,48.788677555987704L203.53456517269734,41.5523865761004L204.8522306743421,36.811443038438505L206.16989617598685,40.74082987684953L207.4875616776316,23.03988367532429L208.8052271792763,36.55693661328366L210.12289268092104,22.019456580613785L211.44055818256578,32.825526428925365L212.75822368421052,29.878271605943386L214.07588918585526,22.242200990676885L215.3935546875,31.16234632662724L216.71122018914474,26.95497347209328L218.02888569078945,30.54674656586898L219.34655119243422,20.33138785743713L220.66421669407896,33.19980675777636L221.98188219572367,21.490119348525997L223.2995476973684,44.221404111259865L224.61721319901315,18.762498255579107L225.93487870065786,27.76820001491747L227.25254420230263,42.61397770038404L228.57020970394737,24.054512437017348L229.8878752055921,19.511612347151104L231.20554070723682,25.147318503831556L232.52320620888156,47.59082719612121L233.84087171052633,22.4630306467759L235.15853721217104,68.11548683176544L236.47620271381578,23.51844494016547L237.79386821546052,18.78692568156594L239.11153371710523,17.177107418562233L240.42919921875,26.988548460207486L241.74686472039474,24.02515181601676L243.06453022203948,25.70547246501321L244.3821957236842,30.88432850396006L245.69986122532893,22.84560294171384L247.01752672697367,37.324473055287406L248.33519222861844,32.67063173906428L249.65285773026315,22.620527111956946L250.9705232319079,16.857311700017824L252.28818873355263,24.09842137135957L253.60585423519734,19.772495984428804L254.9235197368421,29.306857496462364L256.2411852384868,21.10260113595661L257.55885074013156,19.646192197197372L258.8765162417763,16.762827179657794L260.19418174342104,29.106568506642404L261.5118472450658,22.249363824442813L262.8295127467105,19.628361448488747L264.14717824835526,19.700339658134855L265.46484375,21.142327509729483L266.78250925164474,23.540569572348353" style="fill: none;" fill="none"></path></g></g></g></g></g></g><g transform="translate(51, 178)" clip-path="url(#clip_1)"><clipPath id="clip_1"><rect width="278" height="21"></rect></clipPath><g><g><line x1="0.6140779194078958" y1="0" x2="0.6140779194078958" y2="5" style="visibility: inherit;" fill="rgb(0, 0, 0)" stroke="rgb(204, 204, 204)" stroke-width="1px"></line><line x1="33.555715460526315" y1="0" x2="33.555715460526315" y2="5" style="visibility: inherit;" fill="rgb(0, 0, 0)" stroke="rgb(204, 204, 204)" stroke-width="1px"></line><line x1="66.49735300164474" y1="0" x2="66.49735300164474" y2="5" style="visibility: inherit;" fill="rgb(0, 0, 0)" stroke="rgb(204, 204, 204)" stroke-width="1px"></line><line x1="99.43899054276315" y1="0" x2="99.43899054276315" y2="5" style="visibility: inherit;" fill="rgb(0, 0, 0)" stroke="rgb(204, 204, 204)" stroke-width="1px"></line><line x1="132.3806280838816" y1="0" x2="132.3806280838816" y2="5" style="visibility: inherit;" fill="rgb(0, 0, 0)" stroke="rgb(204, 204, 204)" stroke-width="1px"></line><line x1="165.322265625" y1="0" x2="165.322265625" y2="5" style="visibility: inherit;" fill="rgb(0, 0, 0)" stroke="rgb(204, 204, 204)" stroke-width="1px"></line><line x1="198.26390316611844" y1="0" x2="198.26390316611844" y2="5" style="visibility: inherit;" fill="rgb(0, 0, 0)" stroke="rgb(204, 204, 204)" stroke-width="1px"></line><line x1="231.20554070723682" y1="0" x2="231.20554070723682" y2="5" style="visibility: inherit;" fill="rgb(0, 0, 0)" stroke="rgb(204, 204, 204)" stroke-width="1px"></line><line x1="264.14717824835526" y1="0" x2="264.14717824835526" y2="5" style="visibility: inherit;" fill="rgb(0, 0, 0)" stroke="rgb(204, 204, 204)" stroke-width="1px"></line></g><g transform="translate(0, 8)"><text x="0.6140779194078958" y="0" dx="0em" dy="0.95em" style="text-anchor: middle; visibility: hidden; font-family: Roboto, sans-serif; font-size: 12px; font-weight: 200;" fill="rgb(50, 49, 63)" stroke="none" stroke-width="1px">0</text><text x="33.555715460526315" y="0" dx="0em" dy="0.95em" style="text-anchor: middle; visibility: inherit; font-family: Roboto, sans-serif; font-size: 12px; font-weight: 200;" fill="rgb(50, 49, 63)" stroke="none" stroke-width="1px">50k</text><text x="66.49735300164474" y="0" dx="0em" dy="0.95em" style="text-anchor: middle; visibility: inherit; font-family: Roboto, sans-serif; font-size: 12px; font-weight: 200;" fill="rgb(50, 49, 63)" stroke="none" stroke-width="1px">100k</text><text x="99.43899054276315" y="0" dx="0em" dy="0.95em" style="text-anchor: middle; visibility: inherit; font-family: Roboto, sans-serif; font-size: 12px; font-weight: 200;" fill="rgb(50, 49, 63)" stroke="none" stroke-width="1px">150k</text><text x="132.3806280838816" y="0" dx="0em" dy="0.95em" style="text-anchor: middle; visibility: inherit; font-family: Roboto, sans-serif; font-size: 12px; font-weight: 200;" fill="rgb(50, 49, 63)" stroke="none" stroke-width="1px">200k</text><text x="165.322265625" y="0" dx="0em" dy="0.95em" style="text-anchor: middle; visibility: inherit; font-family: Roboto, sans-serif; font-size: 12px; font-weight: 200;" fill="rgb(50, 49, 63)" stroke="none" stroke-width="1px">250k</text><text x="198.26390316611844" y="0" dx="0em" dy="0.95em" style="text-anchor: middle; visibility: inherit; font-family: Roboto, sans-serif; font-size: 12px; font-weight: 200;" fill="rgb(50, 49, 63)" stroke="none" stroke-width="1px">300k</text><text x="231.20554070723682" y="0" dx="0em" dy="0.95em" style="text-anchor: middle; visibility: inherit; font-family: Roboto, sans-serif; font-size: 12px; font-weight: 200;" fill="rgb(50, 49, 63)" stroke="none" stroke-width="1px">350k</text><text x="264.14717824835526" y="0" dx="0em" dy="0.95em" style="text-anchor: middle; visibility: inherit; font-family: Roboto, sans-serif; font-size: 12px; font-weight: 200;" fill="rgb(50, 49, 63)" stroke="none" stroke-width="1px">400k</text></g><line x1="0" y1="0" x2="278.4375" y2="0" fill="rgb(0, 0, 0)" stroke="rgb(204, 204, 204)" stroke-width="1px"></line></g></g></g></g></svg>